<svg id="图层_46" data-name="图层 46" xmlns="http://www.w3.org/2000/svg" viewBox="0 0 9.67 11.8"><defs><style>.cls-1{fill:#fff;}</style></defs><title>摄像头</title><path class="cls-1" d="M754.75,465.05a2.51,2.51,0,1,0-2.51,2.51,2.51,2.51,0,0,0,2.51-2.51Zm-4.27,0a1.76,1.76,0,1,1,1.76,1.76,1.76,1.76,0,0,1-1.76-1.76Zm0,0" transform="translate(-747.41 -459.44)"/><path class="cls-1" d="M755.48,470.49h-.9l-.67-1.68a4.83,4.83,0,1,0-3.42,0h0l-.68,1.71h-.66a.38.38,0,0,0,0,.75h6.33a.38.38,0,1,0,0-.75Zm-7.32-6.22a4.09,4.09,0,1,1,4.08,4.09,4.08,4.08,0,0,1-4.08-4.09Zm3,4.79s0-.05,0-.07a4.42,4.42,0,0,0,1,.12,4.94,4.94,0,0,0,1-.1s0,0,0,.06l.57,1.42h-3.16Zm0,0" transform="translate(-747.41 -459.44)"/><path class="cls-1" d="M751.71,461.27a.57.57,0,0,0,.17.41.58.58,0,0,0,.82,0,.57.57,0,0,0,.17-.41.58.58,0,0,0-1.16,0Zm0,0" transform="translate(-747.41 -459.44)"/></svg>