<svg id="图层_59" data-name="图层 59" xmlns="http://www.w3.org/2000/svg" xmlns:xlink="http://www.w3.org/1999/xlink" viewBox="0 0 14.98 14.96"><defs><style>.cls-1{fill:none;}.cls-2{clip-path:url(#clip-path);}.cls-3{fill:#fff;}</style><clipPath id="clip-path" transform="translate(-3515.65 -406.62)"><rect class="cls-1" x="3515.66" y="406.6" width="15" height="15"/></clipPath></defs><title>查看弹窗关闭icon</title><g class="cls-2"><path class="cls-3" d="M3530.07,421.58a.57.57,0,0,1-.41-.17l-13.84-13.81a.58.58,0,0,1,0-.81.57.57,0,0,1,.82,0l13.83,13.81a.57.57,0,0,1,.12.63.56.56,0,0,1-.52.35" transform="translate(-3515.65 -406.62)"/><path class="cls-3" d="M3516.23,421.58a.58.58,0,0,1-.41-1l13.84-13.81a.57.57,0,0,1,.81.81l-13.83,13.81a.58.58,0,0,1-.41.17" transform="translate(-3515.65 -406.62)"/></g></svg>